<svg width="512" height="512" viewBox="0 0 512 512" fill="none" xmlns="http://www.w3.org/2000/svg">
<rect width="512" height="512" rx="8" fill="white"/>
<path d="M208.589 392C169.613 392 137.018 378.9 110.804 352.7C84.9346 326.499 72 294.266 72 256C72 217.389 84.9346 185.156 110.804 159.3C137.018 133.1 169.613 120 208.589 120C233.768 120 256.706 126.033 277.401 138.099C298.096 150.165 313.618 166.368 323.965 186.707L275.849 214.631C269.985 202.221 261.017 192.568 248.945 185.673C237.217 178.433 223.593 174.814 208.072 174.814C185.307 174.814 166.164 182.57 150.642 198.084C135.466 213.597 127.877 232.902 127.877 256C127.877 279.098 135.466 298.403 150.642 313.916C166.164 329.43 185.307 337.186 208.072 337.186C223.248 337.186 236.873 333.567 248.945 326.327C261.362 319.087 270.675 309.435 276.883 297.369L325 324.776C313.962 345.46 298.096 361.835 277.401 373.901C256.706 385.967 233.768 392 208.589 392Z" fill="#23586A"/>
<path d="M383.065 187C387.818 187 391.671 190.826 391.671 195.545V234H430.394C435.147 234 439 237.826 439 242.545V272.455C439 277.174 435.147 281 430.394 281H391.671V319.455C391.671 324.174 387.818 328 383.065 328H352.944C348.191 327.999 344.338 324.174 344.338 319.455V281H297V242.545C297 237.826 300.853 234 305.606 234H344.338V195.545C344.338 190.826 348.191 187.001 352.944 187H383.065Z" fill="#FD8883"/>
</svg>
