<svg width="92" height="22" viewBox="0 0 92 22" fill="none" xmlns="http://www.w3.org/2000/svg">
<g clip-path="url(#clip0_2670_21910)">
<path d="M7.61239 21.813C5.44072 21.813 3.62459 21.0794 2.16401 19.6123C0.722639 18.1451 0.00195312 16.3304 0.00195312 14.1683C0.00195312 12.0062 0.722639 10.1915 2.16401 8.72432C3.62459 7.25716 5.44072 6.52357 7.61239 6.52357C9.01532 6.52357 10.2933 6.86139 11.4464 7.53707C12.5995 8.21275 13.474 9.12006 14.0697 10.2591L10.8699 12.1413C10.5816 11.5428 10.1396 11.0699 9.54383 10.7224C8.96728 10.3749 8.31387 10.2011 7.58357 10.2011C6.46892 10.2011 5.54644 10.5776 4.81614 11.3305C4.08583 12.0641 3.72069 13.01 3.72069 14.1683C3.72069 15.3073 4.08583 16.2532 4.81614 17.0061C5.54644 17.7397 6.46892 18.1065 7.58357 18.1065C8.33308 18.1065 8.99611 17.9424 9.57266 17.6142C10.1684 17.2667 10.6104 16.7937 10.8987 16.1953L14.1274 18.0486C13.4932 19.1876 12.5995 20.1045 11.4464 20.7995C10.2933 21.4752 9.01532 21.813 7.61239 21.813ZM16.0942 21.4076V0.268799H19.8129V21.4076H16.0942ZM25.0615 5.19153C24.4466 5.19153 23.9084 4.96954 23.4472 4.52552C23.0052 4.0622 22.7842 3.52168 22.7842 2.90391C22.7842 2.28614 23.0052 1.74562 23.4472 1.2823C23.9084 0.818987 24.4466 0.587328 25.0615 0.587328C25.6957 0.587328 26.2339 0.818987 26.6759 1.2823C27.1371 1.74562 27.3677 2.28614 27.3677 2.90391C27.3677 3.52168 27.1371 4.0622 26.6759 4.52552C26.2339 4.96954 25.6957 5.19153 25.0615 5.19153ZM23.2166 21.4076V6.92897H26.9353V21.4076H23.2166ZM38.353 6.52357C39.9288 6.52357 41.226 7.05446 42.2447 8.11622C43.2825 9.17797 43.8014 10.6452 43.8014 12.5177V21.4076H40.0826V12.981C40.0826 12.0158 39.8232 11.2822 39.3043 10.7803C38.7854 10.2591 38.0935 9.99844 37.2287 9.99844C36.2677 9.99844 35.4991 10.2977 34.9226 10.8961C34.346 11.4946 34.0577 12.3922 34.0577 13.5891V21.4076H30.339V6.92897H34.0577V8.55058C34.961 7.19925 36.3927 6.52357 38.353 6.52357ZM56.2076 6.92897H60.3011L54.8239 21.4076H50.5863L45.109 6.92897H49.2025L52.6907 17.064L56.2076 6.92897Z" fill="#23586A"/>
<path d="M71.579 6.92896H75.6725L70.1953 21.4076H65.9577L60.4805 6.92896H64.574L68.0621 17.064L71.579 6.92896Z" fill="#FD8883"/>
<path d="M84.1163 6.20508C86.2495 6.20508 88.0563 6.94837 89.5359 8.43486C91.0158 9.90202 91.7556 11.707 91.7556 13.8498C91.7556 15.9927 91.0158 17.8074 89.5359 19.2938C88.0563 20.761 86.2495 21.4946 84.1163 21.4946C81.9831 21.4946 80.1767 20.761 78.6967 19.2938C77.2363 17.8074 76.5059 15.9927 76.5059 13.8498C76.5059 11.707 77.2363 9.90202 78.6967 8.43486C80.1767 6.94837 81.9831 6.20511 84.1163 6.20508ZM83.4724 10.1867C83.0745 10.1868 82.7517 10.5108 82.7517 10.9106V12.841H80.83C80.4322 12.841 80.1093 13.1652 80.1093 13.5649V15.4957H82.7517V17.426C82.7517 17.8258 83.0745 18.1499 83.4724 18.15H84.6737C85.0716 18.1499 85.3944 17.8258 85.3944 17.426V15.4957H87.3161C87.714 15.4957 88.0368 15.1715 88.0368 14.7717V13.5649C88.0368 13.1652 87.714 12.841 87.3161 12.841H85.3944V10.9106C85.3944 10.5108 85.0716 10.1868 84.6737 10.1867H83.4724Z" fill="#FD8883"/>
</g>
<defs>
<clipPath id="clip0_2670_21910">
<rect width="92" height="22" fill="white"/>
</clipPath>
</defs>
</svg>
